M48
; DRILL file {KiCad 8.0.0} date 2024-04-23T01:00:30+0900
; FORMAT={-:-/ absolute / metric / decimal}
; #@! TF.CreationDate,2024-04-23T01:00:30+09:00
; #@! TF.GenerationSoftware,Kicad,Pcbnew,8.0.0
; #@! TF.FileFunction,Plated,1,2,PTH
FMAT,2
METRIC
; #@! TA.AperFunction,Plated,PTH,ViaDrill
T1C0.300
; #@! TA.AperFunction,Plated,PTH,ViaDrill
T2C0.400
; #@! TA.AperFunction,Plated,PTH,ComponentDrill
T3C0.800
; #@! TA.AperFunction,Plated,PTH,ComponentDrill
T4C0.870
; #@! TA.AperFunction,Plated,PTH,ComponentDrill
T5C0.890
; #@! TA.AperFunction,Plated,PTH,ComponentDrill
T6C1.000
; #@! TA.AperFunction,Plated,PTH,ComponentDrill
T7C1.300
; #@! TA.AperFunction,Plated,PTH,ComponentDrill
T8C1.570
%
G90
G05
T1
X161.036Y-110.998
X161.036Y-113.436
X161.036Y-115.214
X161.036Y-116.434
X161.036Y-118.415
X164.846Y-121.793
X175.006Y-122.022
X175.057Y-110.388
X175.057Y-112.776
X175.057Y-119.228
T2
X130.556Y-135.89
X132.715Y-76.454
X134.874Y-132.842
X137.668Y-103.759
X139.954Y-102.108
X140.081Y-97.282
X142.24Y-91.948
X142.24Y-94.615
X145.161Y-96.901
X150.495Y-107.696
X151.384Y-79.629
X153.162Y-89.281
X153.162Y-93.726
X153.543Y-64.897
X153.543Y-70.993
X154.273Y-106.14
X154.559Y-101.219
X159.766Y-79.629
X159.766Y-101.219
X164.465Y-117.221
X165.798Y-132.779
X166.624Y-124.333
X166.751Y-96.774
X167.513Y-99.949
X169.418Y-118.11
X170.561Y-130.683
X170.815Y-133.604
X173.355Y-81.026
X173.355Y-85.217
X178.276Y-116.808
X178.689Y-125.984
X178.943Y-106.68
X180.34Y-117.45
X180.848Y-112.37
X181.356Y-123.317
X181.737Y-99.441
X181.737Y-102.235
X181.864Y-130.937
X182.829Y-117.145
X183.007Y-128.397
X183.032Y-110.846
T3
X140.675Y-125.339
X140.675Y-127.879
X140.675Y-130.419
X140.675Y-132.959
X140.675Y-135.499
X140.675Y-138.039
X140.675Y-140.579
X140.675Y-143.119
X148.295Y-125.339
X148.295Y-127.879
X148.295Y-130.419
X148.295Y-132.959
X148.295Y-135.499
X148.295Y-138.039
X148.295Y-140.579
X148.295Y-143.119
T4
X139.7Y-107.188
X139.7Y-109.728
X139.7Y-112.268
T5
X128.676Y-62.281
X128.676Y-64.313
X128.676Y-66.345
X128.676Y-68.377
X130.456Y-61.265
X130.456Y-65.329
X130.456Y-67.361
X135.276Y-57.957
X135.276Y-60.247
X135.276Y-69.387
X135.276Y-71.677
T6
X123.063Y-143.525
X123.063Y-146.065
X123.063Y-148.605
X128.27Y-143.525
X128.27Y-146.065
X128.27Y-148.605
X129.54Y-86.868
X129.54Y-89.408
X129.54Y-91.948
X129.54Y-94.488
X129.54Y-97.028
X129.54Y-99.568
X129.54Y-102.108
X129.54Y-104.648
X129.54Y-107.188
X129.54Y-109.728
X129.54Y-112.268
X129.54Y-114.808
X129.54Y-117.348
X129.54Y-119.888
X129.54Y-122.428
X129.54Y-124.968
X129.54Y-127.508
X129.54Y-130.048
X129.54Y-132.588
X132.08Y-86.868
X132.08Y-89.408
X132.08Y-91.948
X132.08Y-94.488
X132.08Y-97.028
X132.08Y-99.568
X132.08Y-102.108
X132.08Y-104.648
X132.08Y-107.188
X132.08Y-109.728
X132.08Y-112.268
X132.08Y-114.808
X132.08Y-117.348
X132.08Y-119.888
X132.08Y-122.428
X132.08Y-124.968
X132.08Y-127.508
X132.08Y-130.048
X132.08Y-132.588
X133.35Y-143.525
X133.35Y-146.065
X133.35Y-148.605
X146.72Y-112.674
X149.26Y-112.674
X151.8Y-112.674
X154.34Y-112.674
X160.909Y-133.096
X160.909Y-135.636
X160.909Y-138.176
X170.533Y-61.981
X170.533Y-64.521
X170.533Y-67.061
X170.533Y-69.601
X170.533Y-72.141
X170.533Y-74.681
X173.073Y-61.981
X173.073Y-64.521
X173.073Y-67.061
X173.073Y-69.601
X173.073Y-72.141
X173.073Y-74.681
X190.5Y-86.868
X190.5Y-89.408
X190.5Y-91.948
X190.5Y-94.488
X190.5Y-97.028
X190.5Y-99.568
X190.5Y-102.108
X190.5Y-104.648
X190.5Y-107.188
X190.5Y-109.728
X190.5Y-112.268
X190.5Y-114.808
X190.5Y-117.348
X190.5Y-119.888
X190.5Y-122.428
X190.5Y-124.968
X190.5Y-127.508
X190.5Y-130.048
X190.5Y-132.588
X193.04Y-86.868
X193.04Y-89.408
X193.04Y-91.948
X193.04Y-94.488
X193.04Y-97.028
X193.04Y-99.568
X193.04Y-102.108
X193.04Y-104.648
X193.04Y-107.188
X193.04Y-109.728
X193.04Y-112.268
X193.04Y-114.808
X193.04Y-117.348
X193.04Y-119.888
X193.04Y-122.428
X193.04Y-124.968
X193.04Y-127.508
X193.04Y-130.048
X193.04Y-132.588
T7
X170.093Y-138.149
X170.093Y-150.649
X175.093Y-138.149
X175.093Y-150.649
X185.928Y-138.176
X185.928Y-150.676
X190.928Y-138.176
X190.928Y-150.676
T8
X129.566Y-56.687
X129.566Y-72.947
M30
