%TF.GenerationSoftware,KiCad,Pcbnew,8.0.0*%
%TF.CreationDate,2024-04-23T01:00:26+09:00*%
%TF.ProjectId,TangPrimer25K_brushless,54616e67-5072-4696-9d65-7232354b5f62,rev?*%
%TF.SameCoordinates,Original*%
%TF.FileFunction,Soldermask,Top*%
%TF.FilePolarity,Negative*%
%FSLAX46Y46*%
G04 Gerber Fmt 4.6, Leading zero omitted, Abs format (unit mm)*
G04 Created by KiCad (PCBNEW 8.0.0) date 2024-04-23 01:00:26*
%MOMM*%
%LPD*%
G01*
G04 APERTURE LIST*
G04 Aperture macros list*
%AMRoundRect*
0 Rectangle with rounded corners*
0 $1 Rounding radius*
0 $2 $3 $4 $5 $6 $7 $8 $9 X,Y pos of 4 corners*
0 Add a 4 corners polygon primitive as box body*
4,1,4,$2,$3,$4,$5,$6,$7,$8,$9,$2,$3,0*
0 Add four circle primitives for the rounded corners*
1,1,$1+$1,$2,$3*
1,1,$1+$1,$4,$5*
1,1,$1+$1,$6,$7*
1,1,$1+$1,$8,$9*
0 Add four rect primitives between the rounded corners*
20,1,$1+$1,$2,$3,$4,$5,0*
20,1,$1+$1,$4,$5,$6,$7,0*
20,1,$1+$1,$6,$7,$8,$9,0*
20,1,$1+$1,$8,$9,$2,$3,0*%
%AMFreePoly0*
4,1,6,1.000000,0.000000,0.500000,-0.750000,-0.500000,-0.750000,-0.500000,0.750000,0.500000,0.750000,1.000000,0.000000,1.000000,0.000000,$1*%
%AMFreePoly1*
4,1,6,0.500000,-0.750000,-0.650000,-0.750000,-0.150000,0.000000,-0.650000,0.750000,0.500000,0.750000,0.500000,-0.750000,0.500000,-0.750000,$1*%
G04 Aperture macros list end*
%ADD10RoundRect,0.237500X-0.237500X0.250000X-0.237500X-0.250000X0.237500X-0.250000X0.237500X0.250000X0*%
%ADD11R,1.700000X1.700000*%
%ADD12O,1.700000X1.700000*%
%ADD13R,2.000000X2.000000*%
%ADD14RoundRect,0.237500X-0.237500X0.300000X-0.237500X-0.300000X0.237500X-0.300000X0.237500X0.300000X0*%
%ADD15R,1.305000X1.305000*%
%ADD16C,1.305000*%
%ADD17C,1.950000*%
%ADD18R,1.901657X0.900810*%
%ADD19R,1.906800X0.900000*%
%ADD20R,1.906800X0.892852*%
%ADD21R,1.905953X0.900000*%
%ADD22R,1.913575X0.838992*%
%ADD23R,1.913575X0.889792*%
%ADD24R,2.006800X0.894800*%
%ADD25R,2.006800X0.900000*%
%ADD26C,1.700000*%
%ADD27R,0.660000X0.230000*%
%ADD28R,0.660000X0.350000*%
%ADD29C,3.250000*%
%ADD30C,1.200000*%
%ADD31R,1.500000X1.500000*%
%ADD32C,1.500000*%
%ADD33C,2.300000*%
%ADD34RoundRect,0.237500X-0.250000X-0.237500X0.250000X-0.237500X0.250000X0.237500X-0.250000X0.237500X0*%
%ADD35RoundRect,0.237500X0.237500X-0.250000X0.237500X0.250000X-0.237500X0.250000X-0.237500X-0.250000X0*%
%ADD36O,1.800000X1.200000*%
%ADD37O,1.900000X1.200000*%
%ADD38R,1.600000X1.600000*%
%ADD39O,1.600000X1.600000*%
%ADD40RoundRect,0.237500X0.250000X0.237500X-0.250000X0.237500X-0.250000X-0.237500X0.250000X-0.237500X0*%
%ADD41FreePoly0,90.000000*%
%ADD42FreePoly1,90.000000*%
G04 APERTURE END LIST*
D10*
%TO.C,R1*%
X153670000Y-125171200D03*
X153670000Y-126996200D03*
%TD*%
D11*
%TO.C,J5*%
X160909000Y-133096000D03*
D12*
X160909000Y-135636000D03*
X160909000Y-138176000D03*
%TD*%
D13*
%TO.C,REF\u002A\u002A*%
X123063000Y-140843000D03*
%TD*%
D14*
%TO.C,C1*%
X151282400Y-128728300D03*
X151282400Y-130453300D03*
%TD*%
D13*
%TO.C,REF\u002A\u002A*%
X128270000Y-140843000D03*
%TD*%
D15*
%TO.C,PS1*%
X139700000Y-112268000D03*
D16*
X139700000Y-109728000D03*
X139700000Y-107188000D03*
%TD*%
D17*
%TO.C,S1*%
X175093000Y-138149000D03*
X175093000Y-150649000D03*
X170093000Y-138149000D03*
X170093000Y-150649000D03*
%TD*%
D12*
%TO.C,U1*%
X143733449Y-66271425D03*
X143733449Y-63731425D03*
X170533449Y-74681425D03*
X170533449Y-72141425D03*
X170533449Y-69601425D03*
X170533449Y-67061425D03*
X170533449Y-64521425D03*
X170533449Y-61981425D03*
D18*
X177039420Y-74659030D03*
D11*
X173073449Y-74681425D03*
D19*
X177036849Y-72113886D03*
D12*
X173073449Y-72141425D03*
D20*
X177036849Y-69575051D03*
D12*
X173073449Y-69601425D03*
D21*
X177037272Y-67031425D03*
D12*
X173073449Y-67061425D03*
D22*
X177033461Y-64518921D03*
D12*
X173073449Y-64521425D03*
D23*
X177033461Y-61953521D03*
D12*
X173073449Y-61981425D03*
D24*
X140030049Y-66274025D03*
D25*
X140030049Y-63731425D03*
%TD*%
D11*
%TO.C,SW2*%
X128270000Y-143525000D03*
D12*
X128270000Y-146065000D03*
X128270000Y-148605000D03*
%TD*%
D10*
%TO.C,R5*%
X146710400Y-116181500D03*
X146710400Y-118006500D03*
%TD*%
D26*
%TO.C,J2*%
X161047600Y-125720800D03*
X161047600Y-106720800D03*
D27*
X159692600Y-122020800D03*
X162402600Y-122020800D03*
X159692600Y-121620800D03*
X162402600Y-121620800D03*
X159692600Y-121220800D03*
X162402600Y-121220800D03*
X159692600Y-120820800D03*
X162402600Y-120820800D03*
X159692600Y-120420800D03*
X162402600Y-120420800D03*
X159692600Y-120020800D03*
X162402600Y-120020800D03*
X159692600Y-119620800D03*
X162402600Y-119620800D03*
X159692600Y-119220800D03*
X162402600Y-119220800D03*
X159692600Y-118820800D03*
X162402600Y-118820800D03*
X159692600Y-118420800D03*
X162402600Y-118420800D03*
X159692600Y-118020800D03*
X162402600Y-118020800D03*
X159692600Y-117620800D03*
X162402600Y-117620800D03*
X159692600Y-117220800D03*
X162402600Y-117220800D03*
X159692600Y-116820800D03*
X162402600Y-116820800D03*
X159692600Y-116420800D03*
X162402600Y-116420800D03*
X159692600Y-116020800D03*
X162402600Y-116020800D03*
X159692600Y-115620800D03*
X162402600Y-115620800D03*
X159692600Y-115220800D03*
X162402600Y-115220800D03*
X159692600Y-114820800D03*
X162402600Y-114820800D03*
X159692600Y-114420800D03*
X162402600Y-114420800D03*
X159692600Y-114020800D03*
X162402600Y-114020800D03*
X159692600Y-113620800D03*
X162402600Y-113620800D03*
X159692600Y-113220800D03*
X162402600Y-113220800D03*
X159692600Y-112820800D03*
X162402600Y-112820800D03*
X159692600Y-112420800D03*
X162402600Y-112420800D03*
X159692600Y-112020800D03*
X162402600Y-112020800D03*
X159692600Y-111620800D03*
X162402600Y-111620800D03*
X159692600Y-111220800D03*
X162402600Y-111220800D03*
X159692600Y-110820800D03*
X162402600Y-110820800D03*
X159692600Y-110420800D03*
X162402600Y-110420800D03*
D28*
X159692600Y-122495800D03*
X162402600Y-122495800D03*
X159692600Y-109945800D03*
X162402600Y-109945800D03*
%TD*%
D29*
%TO.C,J4*%
X126136400Y-71166800D03*
D30*
X130456400Y-63296800D03*
D29*
X126136400Y-58466800D03*
D31*
X128676400Y-68376800D03*
D32*
X130456400Y-67360800D03*
X128676400Y-66344800D03*
X130456400Y-65328800D03*
X128676400Y-64312800D03*
X128676400Y-62280800D03*
X130456400Y-61264800D03*
X135276400Y-71676800D03*
X135276400Y-69386800D03*
X135276400Y-60246800D03*
X135276400Y-57956800D03*
D33*
X129566400Y-72946800D03*
X129566400Y-56686800D03*
%TD*%
D11*
%TO.C,SW3*%
X133350000Y-143525000D03*
D12*
X133350000Y-146065000D03*
X133350000Y-148605000D03*
%TD*%
D34*
%TO.C,R3*%
X151868500Y-119634000D03*
X153693500Y-119634000D03*
%TD*%
D35*
%TO.C,R6*%
X137668000Y-77874500D03*
X137668000Y-76049500D03*
%TD*%
D11*
%TO.C,J3*%
X129540000Y-86868000D03*
D12*
X132080000Y-86868000D03*
X129540000Y-89408000D03*
X132080000Y-89408000D03*
X129540000Y-91948000D03*
X132080000Y-91948000D03*
X129540000Y-94488000D03*
X132080000Y-94488000D03*
X129540000Y-97028000D03*
X132080000Y-97028000D03*
X129540000Y-99568000D03*
X132080000Y-99568000D03*
X129540000Y-102108000D03*
X132080000Y-102108000D03*
X129540000Y-104648000D03*
X132080000Y-104648000D03*
X129540000Y-107188000D03*
X132080000Y-107188000D03*
X129540000Y-109728000D03*
X132080000Y-109728000D03*
X129540000Y-112268000D03*
X132080000Y-112268000D03*
X129540000Y-114808000D03*
X132080000Y-114808000D03*
D36*
X129540000Y-117348000D03*
D12*
X132080000Y-117348000D03*
D36*
X129540000Y-119888000D03*
X132080000Y-119888000D03*
X129540000Y-122428000D03*
X132080000Y-122428000D03*
D37*
X129540000Y-124968000D03*
D36*
X132080000Y-124968000D03*
X129540000Y-127508000D03*
X132080000Y-127508000D03*
X129540000Y-130048000D03*
X132080000Y-130048000D03*
X129540000Y-132588000D03*
X132080000Y-132588000D03*
D11*
X190500000Y-86868000D03*
D12*
X193040000Y-86868000D03*
X190500000Y-89408000D03*
X193040000Y-89408000D03*
X190500000Y-91948000D03*
X193040000Y-91948000D03*
X190500000Y-94488000D03*
X193040000Y-94488000D03*
X190500000Y-97028000D03*
X193040000Y-97028000D03*
X190500000Y-99568000D03*
X193040000Y-99568000D03*
X190500000Y-102108000D03*
X193040000Y-102108000D03*
X190500000Y-104648000D03*
X193040000Y-104648000D03*
X190500000Y-107188000D03*
X193040000Y-107188000D03*
X190500000Y-109728000D03*
X193040000Y-109728000D03*
X190500000Y-112268000D03*
X193040000Y-112268000D03*
D36*
X190500000Y-114808000D03*
D12*
X193040000Y-114808000D03*
D36*
X190500000Y-117348000D03*
D12*
X193040000Y-117348000D03*
D36*
X190500000Y-119888000D03*
D12*
X193040000Y-119888000D03*
D36*
X190500000Y-122428000D03*
D12*
X193040000Y-122428000D03*
X190500000Y-124968000D03*
X193040000Y-124968000D03*
D36*
X190500000Y-127508000D03*
D12*
X193040000Y-127508000D03*
D36*
X190500000Y-130048000D03*
D12*
X193040000Y-130048000D03*
X190500000Y-132588000D03*
X193040000Y-132588000D03*
%TD*%
D13*
%TO.C,REF\u002A\u002A*%
X133350000Y-140843000D03*
%TD*%
D38*
%TO.C,U2*%
X140675200Y-125338600D03*
D39*
X140675200Y-127878600D03*
X140675200Y-130418600D03*
X140675200Y-132958600D03*
X140675200Y-135498600D03*
X140675200Y-138038600D03*
X140675200Y-140578600D03*
X140675200Y-143118600D03*
X148295200Y-143118600D03*
X148295200Y-140578600D03*
X148295200Y-138038600D03*
X148295200Y-135498600D03*
X148295200Y-132958600D03*
X148295200Y-130418600D03*
X148295200Y-127878600D03*
X148295200Y-125338600D03*
%TD*%
D40*
%TO.C,R7*%
X139723500Y-57150000D03*
X137898500Y-57150000D03*
%TD*%
D41*
%TO.C,JP1*%
X151282400Y-126582000D03*
D42*
X151282400Y-125132000D03*
%TD*%
D13*
%TO.C,REF\u002A\u002A*%
X123063000Y-151384000D03*
%TD*%
D11*
%TO.C,SW1*%
X123063000Y-143525000D03*
D12*
X123063000Y-146065000D03*
X123063000Y-148605000D03*
%TD*%
D10*
%TO.C,R2*%
X153670000Y-128727200D03*
X153670000Y-130552200D03*
%TD*%
D34*
%TO.C,R4*%
X160885500Y-130302000D03*
X162710500Y-130302000D03*
%TD*%
D26*
%TO.C,J1*%
X175048000Y-125707600D03*
X175048000Y-106708000D03*
D27*
X173693000Y-122008000D03*
X176403000Y-122008000D03*
X173693000Y-121608000D03*
X176403000Y-121608000D03*
X173693000Y-121208000D03*
X176403000Y-121208000D03*
X173693000Y-120808000D03*
X176403000Y-120808000D03*
X173693000Y-120408000D03*
X176403000Y-120408000D03*
X173693000Y-120008000D03*
X176403000Y-120008000D03*
X173693000Y-119608000D03*
X176403000Y-119608000D03*
X173693000Y-119208000D03*
X176403000Y-119208000D03*
X173693000Y-118808000D03*
X176403000Y-118808000D03*
X173693000Y-118408000D03*
X176403000Y-118408000D03*
X173693000Y-118008000D03*
X176403000Y-118008000D03*
X173693000Y-117608000D03*
X176403000Y-117608000D03*
X173693000Y-117208000D03*
X176403000Y-117208000D03*
X173693000Y-116808000D03*
X176403000Y-116808000D03*
X173693000Y-116408000D03*
X176403000Y-116408000D03*
X173693000Y-116008000D03*
X176403000Y-116008000D03*
X173693000Y-115608000D03*
X176403000Y-115608000D03*
X173693000Y-115208000D03*
X176403000Y-115208000D03*
X173693000Y-114808000D03*
X176403000Y-114808000D03*
X173693000Y-114408000D03*
X176403000Y-114408000D03*
X173693000Y-114008000D03*
X176403000Y-114008000D03*
X173693000Y-113608000D03*
X176403000Y-113608000D03*
X173693000Y-113208000D03*
X176403000Y-113208000D03*
X173693000Y-112808000D03*
X176403000Y-112808000D03*
X173693000Y-112408000D03*
X176403000Y-112408000D03*
X173693000Y-112008000D03*
X176403000Y-112008000D03*
X173693000Y-111608000D03*
X176403000Y-111608000D03*
X173693000Y-111208000D03*
X176403000Y-111208000D03*
X173693000Y-110808000D03*
X176403000Y-110808000D03*
X173693000Y-110408000D03*
X176403000Y-110408000D03*
D28*
X173693000Y-122483000D03*
X176403000Y-122483000D03*
X173693000Y-109933000D03*
X176403000Y-109933000D03*
%TD*%
D13*
%TO.C,REF\u002A\u002A*%
X128270000Y-151384000D03*
%TD*%
D11*
%TO.C,J6*%
X146720400Y-112674400D03*
D12*
X149260400Y-112674400D03*
X151800400Y-112674400D03*
X154340400Y-112674400D03*
%TD*%
D13*
%TO.C,REF\u002A\u002A*%
X133350000Y-151384000D03*
%TD*%
D17*
%TO.C,S2*%
X190928000Y-138176000D03*
X190928000Y-150676000D03*
X185928000Y-138176000D03*
X185928000Y-150676000D03*
%TD*%
M02*
