%TF.GenerationSoftware,KiCad,Pcbnew,8.0.2*%
%TF.CreationDate,2024-10-23T21:40:53+09:00*%
%TF.ProjectId,TangPrimer25K_brushless,54616e67-5072-4696-9d65-7232354b5f62,rev?*%
%TF.SameCoordinates,Original*%
%TF.FileFunction,Soldermask,Top*%
%TF.FilePolarity,Negative*%
%FSLAX46Y46*%
G04 Gerber Fmt 4.6, Leading zero omitted, Abs format (unit mm)*
G04 Created by KiCad (PCBNEW 8.0.2) date 2024-10-23 21:40:53*
%MOMM*%
%LPD*%
G01*
G04 APERTURE LIST*
G04 Aperture macros list*
%AMRoundRect*
0 Rectangle with rounded corners*
0 $1 Rounding radius*
0 $2 $3 $4 $5 $6 $7 $8 $9 X,Y pos of 4 corners*
0 Add a 4 corners polygon primitive as box body*
4,1,4,$2,$3,$4,$5,$6,$7,$8,$9,$2,$3,0*
0 Add four circle primitives for the rounded corners*
1,1,$1+$1,$2,$3*
1,1,$1+$1,$4,$5*
1,1,$1+$1,$6,$7*
1,1,$1+$1,$8,$9*
0 Add four rect primitives between the rounded corners*
20,1,$1+$1,$2,$3,$4,$5,0*
20,1,$1+$1,$4,$5,$6,$7,0*
20,1,$1+$1,$6,$7,$8,$9,0*
20,1,$1+$1,$8,$9,$2,$3,0*%
%AMFreePoly0*
4,1,6,1.000000,0.000000,0.500000,-0.750000,-0.500000,-0.750000,-0.500000,0.750000,0.500000,0.750000,1.000000,0.000000,1.000000,0.000000,$1*%
%AMFreePoly1*
4,1,6,0.500000,-0.750000,-0.650000,-0.750000,-0.150000,0.000000,-0.650000,0.750000,0.500000,0.750000,0.500000,-0.750000,0.500000,-0.750000,$1*%
G04 Aperture macros list end*
%ADD10R,1.700000X1.700000*%
%ADD11O,1.700000X1.700000*%
%ADD12RoundRect,0.237500X-0.237500X0.250000X-0.237500X-0.250000X0.237500X-0.250000X0.237500X0.250000X0*%
%ADD13R,2.000000X2.000000*%
%ADD14RoundRect,0.237500X-0.237500X0.300000X-0.237500X-0.300000X0.237500X-0.300000X0.237500X0.300000X0*%
%ADD15RoundRect,0.237500X0.237500X-0.250000X0.237500X0.250000X-0.237500X0.250000X-0.237500X-0.250000X0*%
%ADD16R,1.305000X1.305000*%
%ADD17C,1.305000*%
%ADD18C,1.500000*%
%ADD19C,1.950000*%
%ADD20R,1.550000X0.700000*%
%ADD21RoundRect,0.237500X-0.250000X-0.237500X0.250000X-0.237500X0.250000X0.237500X-0.250000X0.237500X0*%
%ADD22RoundRect,0.237500X0.300000X0.237500X-0.300000X0.237500X-0.300000X-0.237500X0.300000X-0.237500X0*%
%ADD23R,1.050000X0.600000*%
%ADD24C,1.800000*%
%ADD25R,0.660000X0.230000*%
%ADD26R,0.660000X0.350000*%
%ADD27C,3.250000*%
%ADD28C,1.000000*%
%ADD29R,1.500000X1.500000*%
%ADD30O,1.500000X1.200000*%
%ADD31C,2.300000*%
%ADD32RoundRect,0.237500X0.250000X0.237500X-0.250000X0.237500X-0.250000X-0.237500X0.250000X-0.237500X0*%
%ADD33O,1.800000X1.200000*%
%ADD34O,1.900000X1.200000*%
%ADD35R,1.600000X1.600000*%
%ADD36O,1.600000X1.600000*%
%ADD37FreePoly0,90.000000*%
%ADD38FreePoly1,90.000000*%
%ADD39R,0.780000X0.780000*%
G04 APERTURE END LIST*
D10*
%TO.C,J8*%
X123063000Y-113919000D03*
D11*
X123063000Y-116459000D03*
%TD*%
D12*
%TO.C,R1*%
X153670000Y-125171200D03*
X153670000Y-126996200D03*
%TD*%
D10*
%TO.C,J5*%
X160909000Y-133096000D03*
D11*
X160909000Y-135636000D03*
X160909000Y-138176000D03*
%TD*%
D13*
%TO.C,REF\u002A\u002A*%
X123063000Y-140843000D03*
%TD*%
D14*
%TO.C,C1*%
X151282400Y-128728300D03*
X151282400Y-130453300D03*
%TD*%
D13*
%TO.C,REF\u002A\u002A*%
X128270000Y-140843000D03*
%TD*%
D15*
%TO.C,R9*%
X152146000Y-64309000D03*
X152146000Y-62484000D03*
%TD*%
D16*
%TO.C,PS1*%
X139700000Y-112268000D03*
D17*
X139700000Y-109728000D03*
X139700000Y-107188000D03*
%TD*%
D18*
%TO.C,TP1*%
X123698000Y-125984000D03*
%TD*%
D19*
%TO.C,S1*%
X175093000Y-138149000D03*
X175093000Y-150649000D03*
X170093000Y-138149000D03*
X170093000Y-150649000D03*
%TD*%
D20*
%TO.C,IC2*%
X151950000Y-69723000D03*
X151950000Y-68453000D03*
X151950000Y-67183000D03*
X151950000Y-65913000D03*
X146500000Y-65913000D03*
X146500000Y-67183000D03*
X146500000Y-68453000D03*
X146500000Y-69723000D03*
%TD*%
D10*
%TO.C,SW2*%
X128270000Y-143525000D03*
D11*
X128270000Y-146065000D03*
X128270000Y-148605000D03*
%TD*%
D21*
%TO.C,R13*%
X139041500Y-71247000D03*
X140866500Y-71247000D03*
%TD*%
D22*
%TO.C,C4*%
X143356500Y-73152000D03*
X141631500Y-73152000D03*
%TD*%
D12*
%TO.C,R5*%
X146710400Y-116181500D03*
X146710400Y-118006500D03*
%TD*%
D23*
%TO.C,L1*%
X141732000Y-67310000D03*
X139082000Y-67310000D03*
X139082000Y-68310000D03*
X141732000Y-68310000D03*
%TD*%
D24*
%TO.C,J2*%
X161047600Y-125720800D03*
X161047600Y-106720800D03*
D25*
X159692600Y-122020800D03*
X162402600Y-122020800D03*
X159692600Y-121620800D03*
X162402600Y-121620800D03*
X159692600Y-121220800D03*
X162402600Y-121220800D03*
X159692600Y-120820800D03*
X162402600Y-120820800D03*
X159692600Y-120420800D03*
X162402600Y-120420800D03*
X159692600Y-120020800D03*
X162402600Y-120020800D03*
X159692600Y-119620800D03*
X162402600Y-119620800D03*
X159692600Y-119220800D03*
X162402600Y-119220800D03*
X159692600Y-118820800D03*
X162402600Y-118820800D03*
X159692600Y-118420800D03*
X162402600Y-118420800D03*
X159692600Y-118020800D03*
X162402600Y-118020800D03*
X159692600Y-117620800D03*
X162402600Y-117620800D03*
X159692600Y-117220800D03*
X162402600Y-117220800D03*
X159692600Y-116820800D03*
X162402600Y-116820800D03*
X159692600Y-116420800D03*
X162402600Y-116420800D03*
X159692600Y-116020800D03*
X162402600Y-116020800D03*
X159692600Y-115620800D03*
X162402600Y-115620800D03*
X159692600Y-115220800D03*
X162402600Y-115220800D03*
X159692600Y-114820800D03*
X162402600Y-114820800D03*
X159692600Y-114420800D03*
X162402600Y-114420800D03*
X159692600Y-114020800D03*
X162402600Y-114020800D03*
X159692600Y-113620800D03*
X162402600Y-113620800D03*
X159692600Y-113220800D03*
X162402600Y-113220800D03*
X159692600Y-112820800D03*
X162402600Y-112820800D03*
X159692600Y-112420800D03*
X162402600Y-112420800D03*
X159692600Y-112020800D03*
X162402600Y-112020800D03*
X159692600Y-111620800D03*
X162402600Y-111620800D03*
X159692600Y-111220800D03*
X162402600Y-111220800D03*
X159692600Y-110820800D03*
X162402600Y-110820800D03*
X159692600Y-110420800D03*
X162402600Y-110420800D03*
D26*
X159692600Y-122495800D03*
X162402600Y-122495800D03*
X159692600Y-109945800D03*
X162402600Y-109945800D03*
%TD*%
D27*
%TO.C,J4*%
X126136400Y-74164000D03*
D28*
X130456400Y-66294000D03*
D27*
X126136400Y-61464000D03*
D29*
X128676400Y-71374000D03*
D18*
X130456400Y-70358000D03*
X128676400Y-69342000D03*
D30*
X130456400Y-68326000D03*
D18*
X128676400Y-67310000D03*
X128676400Y-65278000D03*
X130456400Y-64262000D03*
X135276400Y-74674000D03*
X135276400Y-72384000D03*
X135276400Y-63244000D03*
X135276400Y-60954000D03*
D31*
X129566400Y-75944000D03*
X129566400Y-59684000D03*
%TD*%
D14*
%TO.C,C2*%
X149479000Y-62510500D03*
X149479000Y-64235500D03*
%TD*%
D32*
%TO.C,R14*%
X140843000Y-64389000D03*
X139018000Y-64389000D03*
%TD*%
D10*
%TO.C,SW3*%
X133350000Y-143525000D03*
D11*
X133350000Y-146065000D03*
X133350000Y-148605000D03*
%TD*%
D21*
%TO.C,R3*%
X151868500Y-119634000D03*
X153693500Y-119634000D03*
%TD*%
D15*
%TO.C,R6*%
X132969000Y-80645000D03*
X132969000Y-78820000D03*
%TD*%
D21*
%TO.C,R11*%
X146407500Y-71628000D03*
X148232500Y-71628000D03*
%TD*%
D10*
%TO.C,J3*%
X129540000Y-86868000D03*
D11*
X132080000Y-86868000D03*
X129540000Y-89408000D03*
X132080000Y-89408000D03*
X129540000Y-91948000D03*
X132080000Y-91948000D03*
X129540000Y-94488000D03*
X132080000Y-94488000D03*
X129540000Y-97028000D03*
X132080000Y-97028000D03*
X129540000Y-99568000D03*
X132080000Y-99568000D03*
X129540000Y-102108000D03*
X132080000Y-102108000D03*
X129540000Y-104648000D03*
X132080000Y-104648000D03*
X129540000Y-107188000D03*
X132080000Y-107188000D03*
X129540000Y-109728000D03*
X132080000Y-109728000D03*
X129540000Y-112268000D03*
X132080000Y-112268000D03*
X129540000Y-114808000D03*
X132080000Y-114808000D03*
D33*
X129540000Y-117348000D03*
D11*
X132080000Y-117348000D03*
D33*
X129540000Y-119888000D03*
X132080000Y-119888000D03*
X129540000Y-122428000D03*
X132080000Y-122428000D03*
D34*
X129540000Y-124968000D03*
D33*
X132080000Y-124968000D03*
X129540000Y-127508000D03*
X132080000Y-127508000D03*
X129540000Y-130048000D03*
X132080000Y-130048000D03*
X129540000Y-132588000D03*
X132080000Y-132588000D03*
D10*
X190500000Y-86868000D03*
D11*
X193040000Y-86868000D03*
X190500000Y-89408000D03*
X193040000Y-89408000D03*
X190500000Y-91948000D03*
X193040000Y-91948000D03*
X190500000Y-94488000D03*
X193040000Y-94488000D03*
X190500000Y-97028000D03*
X193040000Y-97028000D03*
X190500000Y-99568000D03*
X193040000Y-99568000D03*
X190500000Y-102108000D03*
X193040000Y-102108000D03*
X190500000Y-104648000D03*
X193040000Y-104648000D03*
X190500000Y-107188000D03*
X193040000Y-107188000D03*
X190500000Y-109728000D03*
X193040000Y-109728000D03*
X190500000Y-112268000D03*
X193040000Y-112268000D03*
D33*
X190500000Y-114808000D03*
D11*
X193040000Y-114808000D03*
D33*
X190500000Y-117348000D03*
D11*
X193040000Y-117348000D03*
D33*
X190500000Y-119888000D03*
D11*
X193040000Y-119888000D03*
D33*
X190500000Y-122428000D03*
D11*
X193040000Y-122428000D03*
X190500000Y-124968000D03*
X193040000Y-124968000D03*
D33*
X190500000Y-127508000D03*
D11*
X193040000Y-127508000D03*
D33*
X190500000Y-130048000D03*
D11*
X193040000Y-130048000D03*
X190500000Y-132588000D03*
X193040000Y-132588000D03*
%TD*%
D13*
%TO.C,REF\u002A\u002A*%
X133350000Y-140843000D03*
%TD*%
D35*
%TO.C,U2*%
X140675200Y-125338600D03*
D36*
X140675200Y-127878600D03*
X140675200Y-130418600D03*
X140675200Y-132958600D03*
X140675200Y-135498600D03*
X140675200Y-138038600D03*
X140675200Y-140578600D03*
X140675200Y-143118600D03*
X148295200Y-143118600D03*
X148295200Y-140578600D03*
X148295200Y-138038600D03*
X148295200Y-135498600D03*
X148295200Y-132958600D03*
X148295200Y-130418600D03*
X148295200Y-127878600D03*
X148295200Y-125338600D03*
%TD*%
D21*
%TO.C,R7*%
X133477000Y-57658000D03*
X135302000Y-57658000D03*
%TD*%
D37*
%TO.C,JP1*%
X151282400Y-126582000D03*
D38*
X151282400Y-125132000D03*
%TD*%
D13*
%TO.C,REF\u002A\u002A*%
X123063000Y-151384000D03*
%TD*%
D22*
%TO.C,C3*%
X155929500Y-67183000D03*
X154204500Y-67183000D03*
%TD*%
D10*
%TO.C,SW1*%
X123063000Y-143525000D03*
D11*
X123063000Y-146065000D03*
X123063000Y-148605000D03*
%TD*%
D12*
%TO.C,R2*%
X153670000Y-128727200D03*
X153670000Y-130552200D03*
%TD*%
D21*
%TO.C,R4*%
X160885500Y-130302000D03*
X162710500Y-130302000D03*
%TD*%
D24*
%TO.C,J1*%
X175048000Y-125707600D03*
X175048000Y-106708000D03*
D25*
X173693000Y-122008000D03*
X176403000Y-122008000D03*
X173693000Y-121608000D03*
X176403000Y-121608000D03*
X173693000Y-121208000D03*
X176403000Y-121208000D03*
X173693000Y-120808000D03*
X176403000Y-120808000D03*
X173693000Y-120408000D03*
X176403000Y-120408000D03*
X173693000Y-120008000D03*
X176403000Y-120008000D03*
X173693000Y-119608000D03*
X176403000Y-119608000D03*
X173693000Y-119208000D03*
X176403000Y-119208000D03*
X173693000Y-118808000D03*
X176403000Y-118808000D03*
X173693000Y-118408000D03*
X176403000Y-118408000D03*
X173693000Y-118008000D03*
X176403000Y-118008000D03*
X173693000Y-117608000D03*
X176403000Y-117608000D03*
X173693000Y-117208000D03*
X176403000Y-117208000D03*
X173693000Y-116808000D03*
X176403000Y-116808000D03*
X173693000Y-116408000D03*
X176403000Y-116408000D03*
X173693000Y-116008000D03*
X176403000Y-116008000D03*
X173693000Y-115608000D03*
X176403000Y-115608000D03*
X173693000Y-115208000D03*
X176403000Y-115208000D03*
X173693000Y-114808000D03*
X176403000Y-114808000D03*
X173693000Y-114408000D03*
X176403000Y-114408000D03*
X173693000Y-114008000D03*
X176403000Y-114008000D03*
X173693000Y-113608000D03*
X176403000Y-113608000D03*
X173693000Y-113208000D03*
X176403000Y-113208000D03*
X173693000Y-112808000D03*
X176403000Y-112808000D03*
X173693000Y-112408000D03*
X176403000Y-112408000D03*
X173693000Y-112008000D03*
X176403000Y-112008000D03*
X173693000Y-111608000D03*
X176403000Y-111608000D03*
X173693000Y-111208000D03*
X176403000Y-111208000D03*
X173693000Y-110808000D03*
X176403000Y-110808000D03*
X173693000Y-110408000D03*
X176403000Y-110408000D03*
D26*
X173693000Y-122483000D03*
X176403000Y-122483000D03*
X173693000Y-109933000D03*
X176403000Y-109933000D03*
%TD*%
D13*
%TO.C,REF\u002A\u002A*%
X128270000Y-151384000D03*
%TD*%
D10*
%TO.C,J6*%
X146720400Y-112674400D03*
D11*
X149260400Y-112674400D03*
X151800400Y-112674400D03*
X154340400Y-112674400D03*
%TD*%
D21*
%TO.C,R8*%
X151995500Y-71628000D03*
X153820500Y-71628000D03*
%TD*%
D39*
%TO.C,D4*%
X139070000Y-61849000D03*
X140970000Y-61849000D03*
X140020000Y-59559000D03*
%TD*%
D13*
%TO.C,REF\u002A\u002A*%
X133350000Y-151384000D03*
%TD*%
D19*
%TO.C,S2*%
X190928000Y-138176000D03*
X190928000Y-150676000D03*
X185928000Y-138176000D03*
X185928000Y-150676000D03*
%TD*%
M02*
