%TF.GenerationSoftware,KiCad,Pcbnew,8.0.0*%
%TF.CreationDate,2024-04-23T01:00:26+09:00*%
%TF.ProjectId,TangPrimer25K_brushless,54616e67-5072-4696-9d65-7232354b5f62,rev?*%
%TF.SameCoordinates,Original*%
%TF.FileFunction,Soldermask,Bot*%
%TF.FilePolarity,Negative*%
%FSLAX46Y46*%
G04 Gerber Fmt 4.6, Leading zero omitted, Abs format (unit mm)*
G04 Created by KiCad (PCBNEW 8.0.0) date 2024-04-23 01:00:26*
%MOMM*%
%LPD*%
G01*
G04 APERTURE LIST*
%ADD10R,1.700000X1.700000*%
%ADD11O,1.700000X1.700000*%
%ADD12R,1.305000X1.305000*%
%ADD13C,1.305000*%
%ADD14C,1.950000*%
%ADD15C,1.700000*%
%ADD16C,3.250000*%
%ADD17C,1.200000*%
%ADD18R,1.500000X1.500000*%
%ADD19C,1.500000*%
%ADD20C,2.300000*%
%ADD21O,1.800000X1.200000*%
%ADD22O,1.900000X1.200000*%
%ADD23R,1.600000X1.600000*%
%ADD24O,1.600000X1.600000*%
G04 APERTURE END LIST*
D10*
%TO.C,J5*%
X160909000Y-133096000D03*
D11*
X160909000Y-135636000D03*
X160909000Y-138176000D03*
%TD*%
D12*
%TO.C,PS1*%
X139700000Y-112268000D03*
D13*
X139700000Y-109728000D03*
X139700000Y-107188000D03*
%TD*%
D14*
%TO.C,S1*%
X175093000Y-138149000D03*
X175093000Y-150649000D03*
X170093000Y-138149000D03*
X170093000Y-150649000D03*
%TD*%
D11*
%TO.C,U1*%
X143733449Y-66271425D03*
X143733449Y-63731425D03*
X170533449Y-74681425D03*
X170533449Y-72141425D03*
X170533449Y-69601425D03*
X170533449Y-67061425D03*
X170533449Y-64521425D03*
X170533449Y-61981425D03*
D10*
X173073449Y-74681425D03*
D11*
X173073449Y-72141425D03*
X173073449Y-69601425D03*
X173073449Y-67061425D03*
X173073449Y-64521425D03*
X173073449Y-61981425D03*
%TD*%
D10*
%TO.C,SW2*%
X128270000Y-143525000D03*
D11*
X128270000Y-146065000D03*
X128270000Y-148605000D03*
%TD*%
D15*
%TO.C,J2*%
X161047600Y-125720800D03*
X161047600Y-106720800D03*
%TD*%
D16*
%TO.C,J4*%
X126136400Y-71166800D03*
D17*
X130456400Y-63296800D03*
D16*
X126136400Y-58466800D03*
D18*
X128676400Y-68376800D03*
D19*
X130456400Y-67360800D03*
X128676400Y-66344800D03*
X130456400Y-65328800D03*
X128676400Y-64312800D03*
X128676400Y-62280800D03*
X130456400Y-61264800D03*
X135276400Y-71676800D03*
X135276400Y-69386800D03*
X135276400Y-60246800D03*
X135276400Y-57956800D03*
D20*
X129566400Y-72946800D03*
X129566400Y-56686800D03*
%TD*%
D10*
%TO.C,SW3*%
X133350000Y-143525000D03*
D11*
X133350000Y-146065000D03*
X133350000Y-148605000D03*
%TD*%
D10*
%TO.C,J3*%
X129540000Y-86868000D03*
D11*
X132080000Y-86868000D03*
X129540000Y-89408000D03*
X132080000Y-89408000D03*
X129540000Y-91948000D03*
X132080000Y-91948000D03*
X129540000Y-94488000D03*
X132080000Y-94488000D03*
X129540000Y-97028000D03*
X132080000Y-97028000D03*
X129540000Y-99568000D03*
X132080000Y-99568000D03*
X129540000Y-102108000D03*
X132080000Y-102108000D03*
X129540000Y-104648000D03*
X132080000Y-104648000D03*
X129540000Y-107188000D03*
X132080000Y-107188000D03*
X129540000Y-109728000D03*
X132080000Y-109728000D03*
X129540000Y-112268000D03*
X132080000Y-112268000D03*
X129540000Y-114808000D03*
X132080000Y-114808000D03*
D21*
X129540000Y-117348000D03*
D11*
X132080000Y-117348000D03*
D21*
X129540000Y-119888000D03*
X132080000Y-119888000D03*
X129540000Y-122428000D03*
X132080000Y-122428000D03*
D22*
X129540000Y-124968000D03*
D21*
X132080000Y-124968000D03*
X129540000Y-127508000D03*
X132080000Y-127508000D03*
X129540000Y-130048000D03*
X132080000Y-130048000D03*
X129540000Y-132588000D03*
X132080000Y-132588000D03*
D10*
X190500000Y-86868000D03*
D11*
X193040000Y-86868000D03*
X190500000Y-89408000D03*
X193040000Y-89408000D03*
X190500000Y-91948000D03*
X193040000Y-91948000D03*
X190500000Y-94488000D03*
X193040000Y-94488000D03*
X190500000Y-97028000D03*
X193040000Y-97028000D03*
X190500000Y-99568000D03*
X193040000Y-99568000D03*
X190500000Y-102108000D03*
X193040000Y-102108000D03*
X190500000Y-104648000D03*
X193040000Y-104648000D03*
X190500000Y-107188000D03*
X193040000Y-107188000D03*
X190500000Y-109728000D03*
X193040000Y-109728000D03*
X190500000Y-112268000D03*
X193040000Y-112268000D03*
D21*
X190500000Y-114808000D03*
D11*
X193040000Y-114808000D03*
D21*
X190500000Y-117348000D03*
D11*
X193040000Y-117348000D03*
D21*
X190500000Y-119888000D03*
D11*
X193040000Y-119888000D03*
D21*
X190500000Y-122428000D03*
D11*
X193040000Y-122428000D03*
X190500000Y-124968000D03*
X193040000Y-124968000D03*
D21*
X190500000Y-127508000D03*
D11*
X193040000Y-127508000D03*
D21*
X190500000Y-130048000D03*
D11*
X193040000Y-130048000D03*
X190500000Y-132588000D03*
X193040000Y-132588000D03*
%TD*%
D23*
%TO.C,U2*%
X140675200Y-125338600D03*
D24*
X140675200Y-127878600D03*
X140675200Y-130418600D03*
X140675200Y-132958600D03*
X140675200Y-135498600D03*
X140675200Y-138038600D03*
X140675200Y-140578600D03*
X140675200Y-143118600D03*
X148295200Y-143118600D03*
X148295200Y-140578600D03*
X148295200Y-138038600D03*
X148295200Y-135498600D03*
X148295200Y-132958600D03*
X148295200Y-130418600D03*
X148295200Y-127878600D03*
X148295200Y-125338600D03*
%TD*%
D10*
%TO.C,SW1*%
X123063000Y-143525000D03*
D11*
X123063000Y-146065000D03*
X123063000Y-148605000D03*
%TD*%
D15*
%TO.C,J1*%
X175048000Y-125707600D03*
X175048000Y-106708000D03*
%TD*%
D10*
%TO.C,J6*%
X146720400Y-112674400D03*
D11*
X149260400Y-112674400D03*
X151800400Y-112674400D03*
X154340400Y-112674400D03*
%TD*%
D14*
%TO.C,S2*%
X190928000Y-138176000D03*
X190928000Y-150676000D03*
X185928000Y-138176000D03*
X185928000Y-150676000D03*
%TD*%
M02*
