%TF.GenerationSoftware,KiCad,Pcbnew,8.0.2*%
%TF.CreationDate,2024-10-23T21:40:53+09:00*%
%TF.ProjectId,TangPrimer25K_brushless,54616e67-5072-4696-9d65-7232354b5f62,rev?*%
%TF.SameCoordinates,Original*%
%TF.FileFunction,Legend,Bot*%
%TF.FilePolarity,Positive*%
%FSLAX46Y46*%
G04 Gerber Fmt 4.6, Leading zero omitted, Abs format (unit mm)*
G04 Created by KiCad (PCBNEW 8.0.2) date 2024-10-23 21:40:53*
%MOMM*%
%LPD*%
G01*
G04 APERTURE LIST*
%ADD10C,0.150000*%
G04 APERTURE END LIST*
D10*
X135664411Y-111693438D02*
X135759649Y-111645819D01*
X135759649Y-111645819D02*
X135902506Y-111645819D01*
X135902506Y-111645819D02*
X136045363Y-111693438D01*
X136045363Y-111693438D02*
X136140601Y-111788676D01*
X136140601Y-111788676D02*
X136188220Y-111883914D01*
X136188220Y-111883914D02*
X136235839Y-112074390D01*
X136235839Y-112074390D02*
X136235839Y-112217247D01*
X136235839Y-112217247D02*
X136188220Y-112407723D01*
X136188220Y-112407723D02*
X136140601Y-112502961D01*
X136140601Y-112502961D02*
X136045363Y-112598200D01*
X136045363Y-112598200D02*
X135902506Y-112645819D01*
X135902506Y-112645819D02*
X135807268Y-112645819D01*
X135807268Y-112645819D02*
X135664411Y-112598200D01*
X135664411Y-112598200D02*
X135616792Y-112550580D01*
X135616792Y-112550580D02*
X135616792Y-112217247D01*
X135616792Y-112217247D02*
X135807268Y-112217247D01*
X135188220Y-112645819D02*
X135188220Y-111645819D01*
X135188220Y-111645819D02*
X134616792Y-112645819D01*
X134616792Y-112645819D02*
X134616792Y-111645819D01*
X134140601Y-112645819D02*
X134140601Y-111645819D01*
X134140601Y-111645819D02*
X133902506Y-111645819D01*
X133902506Y-111645819D02*
X133759649Y-111693438D01*
X133759649Y-111693438D02*
X133664411Y-111788676D01*
X133664411Y-111788676D02*
X133616792Y-111883914D01*
X133616792Y-111883914D02*
X133569173Y-112074390D01*
X133569173Y-112074390D02*
X133569173Y-112217247D01*
X133569173Y-112217247D02*
X133616792Y-112407723D01*
X133616792Y-112407723D02*
X133664411Y-112502961D01*
X133664411Y-112502961D02*
X133759649Y-112598200D01*
X133759649Y-112598200D02*
X133902506Y-112645819D01*
X133902506Y-112645819D02*
X134140601Y-112645819D01*
X188639220Y-89785819D02*
X188639220Y-88785819D01*
X188639220Y-88785819D02*
X188401125Y-88785819D01*
X188401125Y-88785819D02*
X188258268Y-88833438D01*
X188258268Y-88833438D02*
X188163030Y-88928676D01*
X188163030Y-88928676D02*
X188115411Y-89023914D01*
X188115411Y-89023914D02*
X188067792Y-89214390D01*
X188067792Y-89214390D02*
X188067792Y-89357247D01*
X188067792Y-89357247D02*
X188115411Y-89547723D01*
X188115411Y-89547723D02*
X188163030Y-89642961D01*
X188163030Y-89642961D02*
X188258268Y-89738200D01*
X188258268Y-89738200D02*
X188401125Y-89785819D01*
X188401125Y-89785819D02*
X188639220Y-89785819D01*
X187639220Y-89785819D02*
X187639220Y-88785819D01*
X186591602Y-89785819D02*
X186924935Y-89309628D01*
X187163030Y-89785819D02*
X187163030Y-88785819D01*
X187163030Y-88785819D02*
X186782078Y-88785819D01*
X186782078Y-88785819D02*
X186686840Y-88833438D01*
X186686840Y-88833438D02*
X186639221Y-88881057D01*
X186639221Y-88881057D02*
X186591602Y-88976295D01*
X186591602Y-88976295D02*
X186591602Y-89119152D01*
X186591602Y-89119152D02*
X186639221Y-89214390D01*
X186639221Y-89214390D02*
X186686840Y-89262009D01*
X186686840Y-89262009D02*
X186782078Y-89309628D01*
X186782078Y-89309628D02*
X187163030Y-89309628D01*
X135537411Y-115312819D02*
X136108839Y-115312819D01*
X135823125Y-115312819D02*
X135823125Y-114312819D01*
X135823125Y-114312819D02*
X135918363Y-114455676D01*
X135918363Y-114455676D02*
X136013601Y-114550914D01*
X136013601Y-114550914D02*
X136108839Y-114598533D01*
X135156458Y-114408057D02*
X135108839Y-114360438D01*
X135108839Y-114360438D02*
X135013601Y-114312819D01*
X135013601Y-114312819D02*
X134775506Y-114312819D01*
X134775506Y-114312819D02*
X134680268Y-114360438D01*
X134680268Y-114360438D02*
X134632649Y-114408057D01*
X134632649Y-114408057D02*
X134585030Y-114503295D01*
X134585030Y-114503295D02*
X134585030Y-114598533D01*
X134585030Y-114598533D02*
X134632649Y-114741390D01*
X134632649Y-114741390D02*
X135204077Y-115312819D01*
X135204077Y-115312819D02*
X134585030Y-115312819D01*
X134299315Y-114312819D02*
X133965982Y-115312819D01*
X133965982Y-115312819D02*
X133632649Y-114312819D01*
X136410458Y-104025819D02*
X135791411Y-104025819D01*
X135791411Y-104025819D02*
X136124744Y-104406771D01*
X136124744Y-104406771D02*
X135981887Y-104406771D01*
X135981887Y-104406771D02*
X135886649Y-104454390D01*
X135886649Y-104454390D02*
X135839030Y-104502009D01*
X135839030Y-104502009D02*
X135791411Y-104597247D01*
X135791411Y-104597247D02*
X135791411Y-104835342D01*
X135791411Y-104835342D02*
X135839030Y-104930580D01*
X135839030Y-104930580D02*
X135886649Y-104978200D01*
X135886649Y-104978200D02*
X135981887Y-105025819D01*
X135981887Y-105025819D02*
X136267601Y-105025819D01*
X136267601Y-105025819D02*
X136362839Y-104978200D01*
X136362839Y-104978200D02*
X136410458Y-104930580D01*
X135505696Y-104025819D02*
X135172363Y-105025819D01*
X135172363Y-105025819D02*
X134839030Y-104025819D01*
X134600934Y-104025819D02*
X133981887Y-104025819D01*
X133981887Y-104025819D02*
X134315220Y-104406771D01*
X134315220Y-104406771D02*
X134172363Y-104406771D01*
X134172363Y-104406771D02*
X134077125Y-104454390D01*
X134077125Y-104454390D02*
X134029506Y-104502009D01*
X134029506Y-104502009D02*
X133981887Y-104597247D01*
X133981887Y-104597247D02*
X133981887Y-104835342D01*
X133981887Y-104835342D02*
X134029506Y-104930580D01*
X134029506Y-104930580D02*
X134077125Y-104978200D01*
X134077125Y-104978200D02*
X134172363Y-105025819D01*
X134172363Y-105025819D02*
X134458077Y-105025819D01*
X134458077Y-105025819D02*
X134553315Y-104978200D01*
X134553315Y-104978200D02*
X134600934Y-104930580D01*
X196751411Y-109153438D02*
X196846649Y-109105819D01*
X196846649Y-109105819D02*
X196989506Y-109105819D01*
X196989506Y-109105819D02*
X197132363Y-109153438D01*
X197132363Y-109153438D02*
X197227601Y-109248676D01*
X197227601Y-109248676D02*
X197275220Y-109343914D01*
X197275220Y-109343914D02*
X197322839Y-109534390D01*
X197322839Y-109534390D02*
X197322839Y-109677247D01*
X197322839Y-109677247D02*
X197275220Y-109867723D01*
X197275220Y-109867723D02*
X197227601Y-109962961D01*
X197227601Y-109962961D02*
X197132363Y-110058200D01*
X197132363Y-110058200D02*
X196989506Y-110105819D01*
X196989506Y-110105819D02*
X196894268Y-110105819D01*
X196894268Y-110105819D02*
X196751411Y-110058200D01*
X196751411Y-110058200D02*
X196703792Y-110010580D01*
X196703792Y-110010580D02*
X196703792Y-109677247D01*
X196703792Y-109677247D02*
X196894268Y-109677247D01*
X196275220Y-110105819D02*
X196275220Y-109105819D01*
X196275220Y-109105819D02*
X195703792Y-110105819D01*
X195703792Y-110105819D02*
X195703792Y-109105819D01*
X195227601Y-110105819D02*
X195227601Y-109105819D01*
X195227601Y-109105819D02*
X194989506Y-109105819D01*
X194989506Y-109105819D02*
X194846649Y-109153438D01*
X194846649Y-109153438D02*
X194751411Y-109248676D01*
X194751411Y-109248676D02*
X194703792Y-109343914D01*
X194703792Y-109343914D02*
X194656173Y-109534390D01*
X194656173Y-109534390D02*
X194656173Y-109677247D01*
X194656173Y-109677247D02*
X194703792Y-109867723D01*
X194703792Y-109867723D02*
X194751411Y-109962961D01*
X194751411Y-109962961D02*
X194846649Y-110058200D01*
X194846649Y-110058200D02*
X194989506Y-110105819D01*
X194989506Y-110105819D02*
X195227601Y-110105819D01*
X135791411Y-109153438D02*
X135886649Y-109105819D01*
X135886649Y-109105819D02*
X136029506Y-109105819D01*
X136029506Y-109105819D02*
X136172363Y-109153438D01*
X136172363Y-109153438D02*
X136267601Y-109248676D01*
X136267601Y-109248676D02*
X136315220Y-109343914D01*
X136315220Y-109343914D02*
X136362839Y-109534390D01*
X136362839Y-109534390D02*
X136362839Y-109677247D01*
X136362839Y-109677247D02*
X136315220Y-109867723D01*
X136315220Y-109867723D02*
X136267601Y-109962961D01*
X136267601Y-109962961D02*
X136172363Y-110058200D01*
X136172363Y-110058200D02*
X136029506Y-110105819D01*
X136029506Y-110105819D02*
X135934268Y-110105819D01*
X135934268Y-110105819D02*
X135791411Y-110058200D01*
X135791411Y-110058200D02*
X135743792Y-110010580D01*
X135743792Y-110010580D02*
X135743792Y-109677247D01*
X135743792Y-109677247D02*
X135934268Y-109677247D01*
X135315220Y-110105819D02*
X135315220Y-109105819D01*
X135315220Y-109105819D02*
X134743792Y-110105819D01*
X134743792Y-110105819D02*
X134743792Y-109105819D01*
X134267601Y-110105819D02*
X134267601Y-109105819D01*
X134267601Y-109105819D02*
X134029506Y-109105819D01*
X134029506Y-109105819D02*
X133886649Y-109153438D01*
X133886649Y-109153438D02*
X133791411Y-109248676D01*
X133791411Y-109248676D02*
X133743792Y-109343914D01*
X133743792Y-109343914D02*
X133696173Y-109534390D01*
X133696173Y-109534390D02*
X133696173Y-109677247D01*
X133696173Y-109677247D02*
X133743792Y-109867723D01*
X133743792Y-109867723D02*
X133791411Y-109962961D01*
X133791411Y-109962961D02*
X133886649Y-110058200D01*
X133886649Y-110058200D02*
X134029506Y-110105819D01*
X134029506Y-110105819D02*
X134267601Y-110105819D01*
X127155411Y-109153438D02*
X127250649Y-109105819D01*
X127250649Y-109105819D02*
X127393506Y-109105819D01*
X127393506Y-109105819D02*
X127536363Y-109153438D01*
X127536363Y-109153438D02*
X127631601Y-109248676D01*
X127631601Y-109248676D02*
X127679220Y-109343914D01*
X127679220Y-109343914D02*
X127726839Y-109534390D01*
X127726839Y-109534390D02*
X127726839Y-109677247D01*
X127726839Y-109677247D02*
X127679220Y-109867723D01*
X127679220Y-109867723D02*
X127631601Y-109962961D01*
X127631601Y-109962961D02*
X127536363Y-110058200D01*
X127536363Y-110058200D02*
X127393506Y-110105819D01*
X127393506Y-110105819D02*
X127298268Y-110105819D01*
X127298268Y-110105819D02*
X127155411Y-110058200D01*
X127155411Y-110058200D02*
X127107792Y-110010580D01*
X127107792Y-110010580D02*
X127107792Y-109677247D01*
X127107792Y-109677247D02*
X127298268Y-109677247D01*
X126679220Y-110105819D02*
X126679220Y-109105819D01*
X126679220Y-109105819D02*
X126107792Y-110105819D01*
X126107792Y-110105819D02*
X126107792Y-109105819D01*
X125631601Y-110105819D02*
X125631601Y-109105819D01*
X125631601Y-109105819D02*
X125393506Y-109105819D01*
X125393506Y-109105819D02*
X125250649Y-109153438D01*
X125250649Y-109153438D02*
X125155411Y-109248676D01*
X125155411Y-109248676D02*
X125107792Y-109343914D01*
X125107792Y-109343914D02*
X125060173Y-109534390D01*
X125060173Y-109534390D02*
X125060173Y-109677247D01*
X125060173Y-109677247D02*
X125107792Y-109867723D01*
X125107792Y-109867723D02*
X125155411Y-109962961D01*
X125155411Y-109962961D02*
X125250649Y-110058200D01*
X125250649Y-110058200D02*
X125393506Y-110105819D01*
X125393506Y-110105819D02*
X125631601Y-110105819D01*
X188115411Y-96453438D02*
X188210649Y-96405819D01*
X188210649Y-96405819D02*
X188353506Y-96405819D01*
X188353506Y-96405819D02*
X188496363Y-96453438D01*
X188496363Y-96453438D02*
X188591601Y-96548676D01*
X188591601Y-96548676D02*
X188639220Y-96643914D01*
X188639220Y-96643914D02*
X188686839Y-96834390D01*
X188686839Y-96834390D02*
X188686839Y-96977247D01*
X188686839Y-96977247D02*
X188639220Y-97167723D01*
X188639220Y-97167723D02*
X188591601Y-97262961D01*
X188591601Y-97262961D02*
X188496363Y-97358200D01*
X188496363Y-97358200D02*
X188353506Y-97405819D01*
X188353506Y-97405819D02*
X188258268Y-97405819D01*
X188258268Y-97405819D02*
X188115411Y-97358200D01*
X188115411Y-97358200D02*
X188067792Y-97310580D01*
X188067792Y-97310580D02*
X188067792Y-96977247D01*
X188067792Y-96977247D02*
X188258268Y-96977247D01*
X187639220Y-97405819D02*
X187639220Y-96405819D01*
X187639220Y-96405819D02*
X187067792Y-97405819D01*
X187067792Y-97405819D02*
X187067792Y-96405819D01*
X186591601Y-97405819D02*
X186591601Y-96405819D01*
X186591601Y-96405819D02*
X186353506Y-96405819D01*
X186353506Y-96405819D02*
X186210649Y-96453438D01*
X186210649Y-96453438D02*
X186115411Y-96548676D01*
X186115411Y-96548676D02*
X186067792Y-96643914D01*
X186067792Y-96643914D02*
X186020173Y-96834390D01*
X186020173Y-96834390D02*
X186020173Y-96977247D01*
X186020173Y-96977247D02*
X186067792Y-97167723D01*
X186067792Y-97167723D02*
X186115411Y-97262961D01*
X186115411Y-97262961D02*
X186210649Y-97358200D01*
X186210649Y-97358200D02*
X186353506Y-97405819D01*
X186353506Y-97405819D02*
X186591601Y-97405819D01*
X196751411Y-124393438D02*
X196846649Y-124345819D01*
X196846649Y-124345819D02*
X196989506Y-124345819D01*
X196989506Y-124345819D02*
X197132363Y-124393438D01*
X197132363Y-124393438D02*
X197227601Y-124488676D01*
X197227601Y-124488676D02*
X197275220Y-124583914D01*
X197275220Y-124583914D02*
X197322839Y-124774390D01*
X197322839Y-124774390D02*
X197322839Y-124917247D01*
X197322839Y-124917247D02*
X197275220Y-125107723D01*
X197275220Y-125107723D02*
X197227601Y-125202961D01*
X197227601Y-125202961D02*
X197132363Y-125298200D01*
X197132363Y-125298200D02*
X196989506Y-125345819D01*
X196989506Y-125345819D02*
X196894268Y-125345819D01*
X196894268Y-125345819D02*
X196751411Y-125298200D01*
X196751411Y-125298200D02*
X196703792Y-125250580D01*
X196703792Y-125250580D02*
X196703792Y-124917247D01*
X196703792Y-124917247D02*
X196894268Y-124917247D01*
X196275220Y-125345819D02*
X196275220Y-124345819D01*
X196275220Y-124345819D02*
X195703792Y-125345819D01*
X195703792Y-125345819D02*
X195703792Y-124345819D01*
X195227601Y-125345819D02*
X195227601Y-124345819D01*
X195227601Y-124345819D02*
X194989506Y-124345819D01*
X194989506Y-124345819D02*
X194846649Y-124393438D01*
X194846649Y-124393438D02*
X194751411Y-124488676D01*
X194751411Y-124488676D02*
X194703792Y-124583914D01*
X194703792Y-124583914D02*
X194656173Y-124774390D01*
X194656173Y-124774390D02*
X194656173Y-124917247D01*
X194656173Y-124917247D02*
X194703792Y-125107723D01*
X194703792Y-125107723D02*
X194751411Y-125202961D01*
X194751411Y-125202961D02*
X194846649Y-125298200D01*
X194846649Y-125298200D02*
X194989506Y-125345819D01*
X194989506Y-125345819D02*
X195227601Y-125345819D01*
X127726839Y-130140104D02*
X127250649Y-130140104D01*
X127822077Y-130425819D02*
X127488744Y-129425819D01*
X127488744Y-129425819D02*
X127155411Y-130425819D01*
X126250649Y-130330580D02*
X126298268Y-130378200D01*
X126298268Y-130378200D02*
X126441125Y-130425819D01*
X126441125Y-130425819D02*
X126536363Y-130425819D01*
X126536363Y-130425819D02*
X126679220Y-130378200D01*
X126679220Y-130378200D02*
X126774458Y-130282961D01*
X126774458Y-130282961D02*
X126822077Y-130187723D01*
X126822077Y-130187723D02*
X126869696Y-129997247D01*
X126869696Y-129997247D02*
X126869696Y-129854390D01*
X126869696Y-129854390D02*
X126822077Y-129663914D01*
X126822077Y-129663914D02*
X126774458Y-129568676D01*
X126774458Y-129568676D02*
X126679220Y-129473438D01*
X126679220Y-129473438D02*
X126536363Y-129425819D01*
X126536363Y-129425819D02*
X126441125Y-129425819D01*
X126441125Y-129425819D02*
X126298268Y-129473438D01*
X126298268Y-129473438D02*
X126250649Y-129521057D01*
X125250649Y-130330580D02*
X125298268Y-130378200D01*
X125298268Y-130378200D02*
X125441125Y-130425819D01*
X125441125Y-130425819D02*
X125536363Y-130425819D01*
X125536363Y-130425819D02*
X125679220Y-130378200D01*
X125679220Y-130378200D02*
X125774458Y-130282961D01*
X125774458Y-130282961D02*
X125822077Y-130187723D01*
X125822077Y-130187723D02*
X125869696Y-129997247D01*
X125869696Y-129997247D02*
X125869696Y-129854390D01*
X125869696Y-129854390D02*
X125822077Y-129663914D01*
X125822077Y-129663914D02*
X125774458Y-129568676D01*
X125774458Y-129568676D02*
X125679220Y-129473438D01*
X125679220Y-129473438D02*
X125536363Y-129425819D01*
X125536363Y-129425819D02*
X125441125Y-129425819D01*
X125441125Y-129425819D02*
X125298268Y-129473438D01*
X125298268Y-129473438D02*
X125250649Y-129521057D01*
X124822077Y-129902009D02*
X124488744Y-129902009D01*
X124345887Y-130425819D02*
X124822077Y-130425819D01*
X124822077Y-130425819D02*
X124822077Y-129425819D01*
X124822077Y-129425819D02*
X124345887Y-129425819D01*
X123441125Y-130425819D02*
X123917315Y-130425819D01*
X123917315Y-130425819D02*
X123917315Y-129425819D01*
X134823030Y-106565819D02*
X135299220Y-106565819D01*
X135299220Y-106565819D02*
X135346839Y-107042009D01*
X135346839Y-107042009D02*
X135299220Y-106994390D01*
X135299220Y-106994390D02*
X135203982Y-106946771D01*
X135203982Y-106946771D02*
X134965887Y-106946771D01*
X134965887Y-106946771D02*
X134870649Y-106994390D01*
X134870649Y-106994390D02*
X134823030Y-107042009D01*
X134823030Y-107042009D02*
X134775411Y-107137247D01*
X134775411Y-107137247D02*
X134775411Y-107375342D01*
X134775411Y-107375342D02*
X134823030Y-107470580D01*
X134823030Y-107470580D02*
X134870649Y-107518200D01*
X134870649Y-107518200D02*
X134965887Y-107565819D01*
X134965887Y-107565819D02*
X135203982Y-107565819D01*
X135203982Y-107565819D02*
X135299220Y-107518200D01*
X135299220Y-107518200D02*
X135346839Y-107470580D01*
X134489696Y-106565819D02*
X134156363Y-107565819D01*
X134156363Y-107565819D02*
X133823030Y-106565819D01*
M02*
