M48
; DRILL file {KiCad 8.0.2} date 2024-10-23T21:40:56+0900
; FORMAT={-:-/ absolute / inch / decimal}
; #@! TF.CreationDate,2024-10-23T21:40:56+09:00
; #@! TF.GenerationSoftware,Kicad,Pcbnew,8.0.2
; #@! TF.FileFunction,Plated,1,2,PTH
FMAT,2
INCH
; #@! TA.AperFunction,Plated,PTH,ViaDrill
T1C0.0118
; #@! TA.AperFunction,Plated,PTH,ViaDrill
T2C0.0157
; #@! TA.AperFunction,Plated,PTH,ViaDrill
T3C0.0236
; #@! TA.AperFunction,Plated,PTH,ComponentDrill
T4C0.0315
; #@! TA.AperFunction,Plated,PTH,ComponentDrill
T5C0.0343
; #@! TA.AperFunction,Plated,PTH,ComponentDrill
T6C0.0350
; #@! TA.AperFunction,Plated,PTH,ComponentDrill
T7C0.0394
; #@! TA.AperFunction,Plated,PTH,ComponentDrill
T8C0.0512
; #@! TA.AperFunction,Plated,PTH,ComponentDrill
T9C0.0618
%
G90
G05
T1
X6.34Y-4.37
X6.34Y-4.466
X6.34Y-4.536
X6.34Y-4.584
X6.34Y-4.662
X6.89Y-4.804
X6.892Y-4.346
X6.892Y-4.44
X6.892Y-4.504
X6.892Y-4.694
T2
X4.94Y-2.6
X4.94Y-2.73
X5.14Y-5.35
X5.31Y-5.23
X5.42Y-4.085
X5.425Y-3.18
X5.435Y-2.31
X5.545Y-3.305
X5.545Y-3.68
X5.605Y-3.02
X5.625Y-2.435
X5.625Y-2.535
X5.645Y-2.805
X5.655Y-3.77
X5.6775Y-3.4575
X5.7Y-3.02
X5.8Y-2.5
X5.83Y-3.795
X5.905Y-2.91
X5.96Y-3.135
X5.96Y-3.31
X5.985Y-3.795
X6.085Y-3.985
X6.22Y-2.465
X6.23Y-2.85
X6.29Y-3.135
X6.29Y-3.985
X6.34Y-2.465
X6.345Y-2.85
X6.52Y-4.545
X6.5275Y-5.2275
X6.56Y-4.895
X6.565Y-3.17
X6.67Y-4.65
X6.675Y-2.86
X6.715Y-5.145
X6.725Y-5.26
X6.91Y-3.68
X7.0187Y-4.5987
X7.035Y-4.96
X7.1Y-4.624
X7.12Y-4.424
X7.14Y-4.855
X7.16Y-5.155
X7.198Y-4.612
X7.205Y-5.055
X7.206Y-4.364
X7.25Y-4.015
X7.25Y-4.16
T3
X6.49Y-4.795
T4
X5.5384Y-4.9346
X5.5384Y-5.0346
X5.5384Y-5.1346
X5.5384Y-5.2346
X5.5384Y-5.3346
X5.5384Y-5.4346
X5.5384Y-5.5346
X5.5384Y-5.6346
X5.8384Y-4.9346
X5.8384Y-5.0346
X5.8384Y-5.1346
X5.8384Y-5.2346
X5.8384Y-5.3346
X5.8384Y-5.4346
X5.8384Y-5.5346
X5.8384Y-5.6346
T5
X5.5Y-4.22
X5.5Y-4.32
X5.5Y-4.42
T6
X5.066Y-2.57
X5.066Y-2.65
X5.066Y-2.73
X5.066Y-2.81
X5.1361Y-2.53
X5.1361Y-2.69
X5.1361Y-2.77
X5.3258Y-2.3998
X5.3258Y-2.4899
X5.3258Y-2.8498
X5.3258Y-2.9399
T7
X4.845Y-4.485
X4.845Y-4.585
X4.845Y-5.6506
X4.845Y-5.7506
X4.845Y-5.8506
X5.05Y-5.6506
X5.05Y-5.7506
X5.05Y-5.8506
X5.1Y-3.42
X5.1Y-3.52
X5.1Y-3.62
X5.1Y-3.72
X5.1Y-3.82
X5.1Y-3.92
X5.1Y-4.02
X5.1Y-4.12
X5.1Y-4.22
X5.1Y-4.32
X5.1Y-4.42
X5.1Y-4.52
X5.1Y-4.62
X5.1Y-4.72
X5.1Y-4.82
X5.1Y-4.92
X5.1Y-5.02
X5.1Y-5.12
X5.1Y-5.22
X5.2Y-3.42
X5.2Y-3.52
X5.2Y-3.62
X5.2Y-3.72
X5.2Y-3.82
X5.2Y-3.92
X5.2Y-4.02
X5.2Y-4.12
X5.2Y-4.22
X5.2Y-4.32
X5.2Y-4.42
X5.2Y-4.52
X5.2Y-4.62
X5.2Y-4.72
X5.2Y-4.82
X5.2Y-4.92
X5.2Y-5.02
X5.2Y-5.12
X5.2Y-5.22
X5.25Y-5.6506
X5.25Y-5.7506
X5.25Y-5.8506
X5.7764Y-4.436
X5.8764Y-4.436
X5.9764Y-4.436
X6.0764Y-4.436
X6.335Y-5.24
X6.335Y-5.34
X6.335Y-5.44
X7.5Y-3.42
X7.5Y-3.52
X7.5Y-3.62
X7.5Y-3.72
X7.5Y-3.82
X7.5Y-3.92
X7.5Y-4.02
X7.5Y-4.12
X7.5Y-4.22
X7.5Y-4.32
X7.5Y-4.42
X7.5Y-4.52
X7.5Y-4.62
X7.5Y-4.72
X7.5Y-4.82
X7.5Y-4.92
X7.5Y-5.02
X7.5Y-5.12
X7.5Y-5.22
X7.6Y-3.42
X7.6Y-3.52
X7.6Y-3.62
X7.6Y-3.72
X7.6Y-3.82
X7.6Y-3.92
X7.6Y-4.02
X7.6Y-4.12
X7.6Y-4.22
X7.6Y-4.32
X7.6Y-4.42
X7.6Y-4.52
X7.6Y-4.62
X7.6Y-4.72
X7.6Y-4.82
X7.6Y-4.92
X7.6Y-5.02
X7.6Y-5.12
X7.6Y-5.22
T8
X6.6966Y-5.4389
X6.6966Y-5.9311
X6.8934Y-5.4389
X6.8934Y-5.9311
X7.32Y-5.44
X7.32Y-5.9321
X7.5169Y-5.44
X7.5169Y-5.9321
T9
X5.101Y-2.3498
X5.101Y-2.9899
M30
